<svg id="Capa_1" enable-background="new 0 0 512 512" height="512" viewBox="0 0 512 512" width="512" xmlns="http://www.w3.org/2000/svg" xmlns:xlink="http://www.w3.org/1999/xlink"><linearGradient id="SVGID_1_" gradientUnits="userSpaceOnUse" x1="256" x2="256" y1="512" y2="0"><stop offset="0" stop-color="#c3ffe8"/><stop offset=".9973" stop-color="#f0fff4"/></linearGradient><linearGradient id="SVGID_2_" gradientUnits="userSpaceOnUse" x1="256" x2="256" y1="512" y2="152"><stop offset="0" stop-color="#00b59c"/><stop offset="1" stop-color="#9cffac"/></linearGradient><g><g><g><path d="m388.773 279.119c-2.753-4.424-7.587-7.119-12.773-7.119h-5.83l2.49-5.054c2.314-4.658 2.021-10.181-.732-14.59l-43.887-70.356h17.959c5.391 0 10.4-2.9 13.066-7.603 2.637-4.702 2.578-10.474-.205-15.117l-90-152.513c-5.391-9.023-20.332-9.023-25.723 0l-90 152.513c-2.783 4.644-2.842 10.415-.205 15.117 2.667 4.703 7.676 7.603 13.067 7.603h17.959l-43.887 70.356c-2.754 4.409-3.047 9.932-.732 14.59l2.49 5.054h-5.83c-5.186 0-10.02 2.695-12.773 7.119-2.725 4.424-2.959 9.946-.645 14.59l49.16 98.291h-5.742c-4.834 0-9.346 2.314-12.158 6.226-2.842 3.911-3.604 8.95-2.08 13.521l30 90c2.051 6.122 7.793 10.253 14.238 10.253h120c6.445 0 12.188-4.131 14.238-10.254l30-90c1.523-4.57.762-9.609-2.08-13.521-2.812-3.911-7.324-6.225-12.158-6.225h-5.742l49.16-98.291c2.314-4.644 2.08-10.166-.645-14.59z" fill="url(#SVGID_1_)"/></g></g><g><g><path d="m186.801 422h9.199c5.186 0 10.02-2.695 12.773-7.119 2.725-4.424 2.959-9.946.645-14.59l-49.16-98.291h5.742c5.186 0 10.02-2.681 12.744-7.09s2.988-9.917.703-14.561l-60.029-120.073c-2.549-5.068-7.734-8.276-13.418-8.276s-10.869 3.208-13.418 8.291l-60.992 120c-2.314 4.644-2.08 10.166.645 14.59 2.754 4.424 7.588 7.119 12.773 7.119h5.742l-49.16 98.291c-2.314 4.644-2.08 10.166.645 14.59 2.753 4.424 7.587 7.119 12.773 7.119h9.199l-23.438 70.254c-1.523 4.57-.762 9.609 2.08 13.521 2.813 3.911 7.325 6.225 12.159 6.225h180.992c4.834 0 9.346-2.314 12.158-6.226 2.842-3.911 3.604-8.95 2.08-13.521zm324.429 70.254-23.437-70.254h9.199c5.186 0 10.02-2.695 12.773-7.119 2.725-4.424 2.959-9.946.645-14.59l-49.16-98.291h5.742c5.186 0 10.02-2.695 12.773-7.119 2.725-4.424 2.959-9.946.645-14.59l-60.992-120c-2.549-5.083-7.734-8.291-13.418-8.291s-10.869 3.208-13.418 8.276l-60.029 120.074c-2.285 4.644-2.021 10.151.703 14.561s7.558 7.089 12.744 7.089h5.742l-49.16 98.291c-2.314 4.644-2.08 10.166.645 14.59 2.753 4.424 7.587 7.119 12.773 7.119h9.199l-23.438 70.254c-1.523 4.57-.762 9.609 2.08 13.521 2.813 3.911 7.325 6.225 12.159 6.225h180.992c4.834 0 9.346-2.314 12.158-6.226 2.842-3.911 3.604-8.95 2.08-13.52z" fill="url(#SVGID_2_)"/></g></g></g></svg>